<?xml version="1.0" encoding="UTF-8"?>
<svg version="1.1" xmlns="http://www.w3.org/2000/svg" width="3172" height="1888">
<path d="M0 0 C1046.76 0 2093.52 0 3172 0 C3172 623.04 3172 1246.08 3172 1888 C2125.24 1888 1078.48 1888 0 1888 C0 1264.96 0 641.92 0 0 Z " fill="#053D5F" transform="translate(0,0)"/>
<path d="M0 0 C2.6914732 0.00423453 5.38233216 0.00250995 8.07373047 -0.00663757 C13.85428277 -0.0144761 19.63228157 0.03228634 25.41219139 0.11693001 C33.76833952 0.23922116 42.12326216 0.27793888 50.48020808 0.29674988 C64.04040131 0.32952092 77.59923547 0.42918071 91.15869141 0.57128906 C104.3246382 0.70912917 117.49021491 0.81522781 130.65673828 0.87890625 C131.46929812 0.8828471 132.28185795 0.88678795 133.11904081 0.89084823 C137.19571296 0.91042483 141.27238773 0.9293802 145.34906423 0.94802678 C179.1305861 1.10334503 212.91046293 1.36737734 246.69067383 1.70288086 C247.04231059 10.70956601 247.3067268 19.71380132 247.46785641 28.72591591 C247.54530169 32.91361833 247.64978324 37.09654305 247.82226562 41.28149414 C248.661555 62.19939918 248.30465787 77.01643652 233.64173889 93.42544556 C230.31731609 97.30597112 227.5715316 101.57402419 224.75317383 105.82788086 C223.68389253 107.39458006 222.61261481 108.95992077 221.53833008 110.52319336 C219.23194948 113.90085188 216.95178626 117.29469052 214.69067383 120.70288086 C209.71048618 128.20955201 204.59663648 135.62474955 199.50415039 143.05541992 C191.5993384 154.59550894 183.70267824 166.13934485 175.96850586 177.79467773 C173.28173105 181.83666851 170.52796204 185.82356012 167.72973633 189.78881836 C160.58533903 199.99901067 153.59131263 210.3150469 146.70239258 220.69897461 C141.97210646 227.76225622 137.11662489 234.74144617 132.28637695 241.73657227 C124.97981248 252.31981836 117.78267953 262.96945997 110.71020508 273.71069336 C106.30826765 280.37259454 101.7416763 286.90270511 97.12182617 293.4140625 C92.85838384 299.43490792 88.74534155 305.53909723 84.69067383 311.70288086 C76.29352641 324.39835212 67.69356642 336.95658939 59.00317383 349.45288086 C55.46268433 354.55402329 52.00759515 359.70651838 48.57861328 364.8828125 C44.88326146 370.44848243 41.09550755 375.94835417 37.26928711 381.42480469 C36.61162354 382.37262817 36.61162354 382.37262817 35.94067383 383.33959961 C35.55395508 383.89349365 35.16723633 384.4473877 34.76879883 385.01806641 C33.60731668 386.83314528 32.65437006 388.7754884 31.69067383 390.70288086 C105.28067383 390.70288086 178.87067383 390.70288086 254.69067383 390.70288086 C253.17938952 394.48109164 252.17616374 396.68156565 249.85473633 399.78491211 C249.29117432 400.54384766 248.7276123 401.3027832 248.14697266 402.0847168 C247.54264404 402.88683594 246.93831543 403.68895508 246.31567383 404.51538086 C245.69007568 405.35488281 245.06447754 406.19438477 244.41992188 407.05932617 C242.51589786 409.61152344 240.60431223 412.15788733 238.69067383 414.70288086 C237.62150554 416.12854373 236.55248474 417.55431722 235.48364258 418.98022461 C233.99574911 420.96408257 232.5072449 422.94746702 231.0168457 424.92944336 C226.35845116 431.12826319 221.77803047 437.38278381 217.20043945 443.64135742 C214.3287518 447.56252988 211.44767275 451.47678361 208.56567383 455.39038086 C207.97109375 456.19797852 207.37651367 457.00557617 206.76391602 457.83764648 C202.73235081 463.30698009 198.66659028 468.74822047 194.55786133 474.15991211 C192.56980791 476.68233941 192.56980791 476.68233941 191.28738785 479.81672096 C188.34674915 483.08514152 187.86608032 483.15520493 183.70067978 483.44116783 C181.55928267 483.46646669 179.41734264 483.45815479 177.27606201 483.42440796 C176.09658123 483.42953451 174.91710045 483.43466106 173.70187783 483.43994296 C170.42673259 483.4481261 167.15300751 483.42934604 163.8780303 483.39927459 C160.34705218 483.37338806 156.81614151 483.38213029 153.28509521 483.38668823 C147.16701271 483.38983594 141.04931382 483.37099509 134.93132782 483.3372612 C126.08579195 483.28851963 117.24044176 483.2728747 108.39478615 483.26533325 C94.04376592 483.25219816 79.69295019 483.21225964 65.34204102 483.15551758 C51.40064518 483.10045197 37.45930488 483.05797728 23.51782227 483.0324707 C22.65861843 483.03089436 21.7994146 483.02931802 20.91417429 483.02769391 C16.60384466 483.01986375 12.29351463 483.01228148 7.98318434 483.00482249 C-27.78113163 482.94261183 -63.54521004 482.83692396 -99.30932617 482.70288086 C-99.49564835 473.65315772 -99.63731288 464.60410634 -99.72382355 455.55287552 C-99.76537 451.34876448 -99.8216098 447.14597661 -99.9128418 442.94262695 C-100.00051911 438.87706489 -100.04775431 434.8127656 -100.06834412 430.74633026 C-100.08299366 429.2042022 -100.11159913 427.66213419 -100.15516663 426.12055206 C-100.45136757 415.19355958 -98.41686276 408.37718121 -91.30932617 399.70288086 C-90.45192837 398.46615641 -89.60732954 397.22031262 -88.78393555 395.96069336 C-88.08075195 394.92686523 -87.37756836 393.89303711 -86.65307617 392.82788086 C-86.26164429 392.25183105 -85.8702124 391.67578125 -85.46691895 391.08227539 C-83.84241278 388.69160889 -82.21669364 386.30176818 -80.59106445 383.91186523 C-75.12192011 375.86965218 -69.69315914 367.80259596 -64.30932617 359.70288086 C-62.97755772 357.7053098 -61.64552495 355.70791493 -60.31323242 353.71069336 C-57.63038289 349.68674664 -54.95103903 345.6604957 -52.27416992 341.63256836 C-50.93172201 339.61433919 -49.58927409 337.59611003 -48.24682617 335.57788086 C-47.57844727 334.57112305 -46.91006836 333.56436523 -46.22143555 332.52709961 C-42.52025942 326.96634325 -38.76504724 321.45186051 -34.91943359 315.98999023 C-27.62527134 305.62885119 -20.54651317 295.12088871 -13.54321289 284.56176758 C-11.05422218 280.81202969 -8.55450346 277.06943317 -6.05688477 273.32543945 C-3.98262011 270.21525644 -1.91080468 267.10350356 0.15551758 263.98803711 C4.32329271 257.70996475 8.5301456 251.4637392 12.81567383 245.26538086 C17.13122033 239.01653637 21.36332405 232.71582701 25.56567383 226.39038086 C34.74355863 212.57741044 44.02945819 198.83749311 53.3112793 185.09423828 C59.04754263 176.59891011 64.77188777 168.09655681 70.4487915 159.56143188 C73.36309451 155.18353354 76.31742787 150.83610155 79.31567383 146.51538086 C82.4166664 142.04316813 85.47022017 137.54329967 88.48364258 133.01147461 C93.45805042 125.53285131 98.52748651 118.11984861 103.59887695 110.70678711 C104.31366211 109.6587793 105.02844727 108.61077148 105.76489258 107.53100586 C106.71755005 106.13736816 106.71755005 106.13736816 107.68945312 104.71557617 C110.0963228 101.0922052 112.38521872 97.39160904 114.69067383 93.70288086 C46.05067383 93.70288086 -22.58932617 93.70288086 -93.30932617 93.70288086 C-89.25591421 87.62276292 -85.16338969 81.68145596 -80.80932617 75.82788086 C-79.56968707 74.15344297 -78.33010536 72.47896261 -77.09057617 70.80444336 C-76.46280273 69.95785156 -75.8350293 69.11125977 -75.18823242 68.23901367 C-72.22037529 64.23302356 -69.26520797 60.21771044 -66.30932617 56.20288086 C-65.15055005 54.62990669 -63.99169559 53.05699024 -62.83276367 51.48413086 C-62.25623047 50.70166992 -61.67969727 49.91920898 -61.08569336 49.11303711 C-59.2571822 46.63213247 -57.42786591 44.15182315 -55.59838867 41.67163086 C-48.33618321 31.82979443 -48.33618321 31.82979443 -41.12182617 21.95288086 C-40.53764325 21.19142793 -39.95346033 20.42997499 -39.3515749 19.64544773 C-37.78556579 17.38906903 -36.64062391 15.40674129 -35.45569897 12.96880245 C-27.51613248 -1.97944485 -15.35534378 -0.33766117 0 0 Z " fill="#7B9EA6" transform="translate(1317.309326171875,685.297119140625)"/>
<path d="M0 0 C0.77251602 0.00359528 1.54503204 0.00719055 2.34095764 0.01089478 C3.55549622 0.01067574 3.55549622 0.01067574 4.79457092 0.01045227 C7.48380671 0.01115163 10.17297412 0.01894507 12.86219788 0.02676392 C14.72164878 0.02862802 16.58110018 0.03005196 18.44055176 0.03105164 C23.34458258 0.03487746 28.24858398 0.04470829 33.15260315 0.05575562 C38.15280255 0.06596836 43.15300669 0.07054896 48.1532135 0.07559204 C57.97158583 0.0863305 67.78993629 0.10340769 77.60829163 0.12442017 C78.5582555 2.15355192 79.50495571 4.18421175 80.45033264 6.21548462 C81.24166344 7.91146538 81.24166344 7.91146538 82.04898071 9.64170837 C84.49220235 15.09862958 86.52029842 20.68950087 88.54579163 26.31192017 C89.41313477 28.68733908 90.28162668 31.06233886 91.15126038 33.43692017 C91.77846985 35.15201782 91.77846985 35.15201782 92.41835022 36.90176392 C94.01475797 41.22523178 95.67331626 45.52232736 97.35829163 49.81192017 C99.48635812 55.23355429 101.57565809 60.66624868 103.60829163 66.12442017 C105.7263672 71.81056231 107.89979618 77.47279179 110.10829163 83.12442017 C112.49762717 89.24049771 114.83844862 95.37078056 117.12782288 101.52505493 C119.13984148 106.91598107 121.21139109 112.2829736 123.28797913 117.64932251 C126.87148932 126.91158314 130.39192542 136.1768764 133.63392639 145.56436157 C134.97498052 149.41983248 136.4335951 153.1872631 138.04579163 156.93692017 C140.69277168 163.10753283 142.83634459 169.42848408 145.01991272 175.77334595 C146.93601681 181.30470143 149.04291028 186.69745422 151.36219788 192.07363892 C152.91650106 195.87900188 154.26364615 199.74097521 155.60829163 203.62442017 C157.61571452 209.41245786 159.7847613 215.0714057 162.19422913 220.70645142 C165.20021384 227.97229844 167.91200725 235.35721049 170.69325256 242.71133423 C171.86114748 245.79123639 173.04572008 248.86455765 174.23329163 251.93692017 C176.01255951 256.55115488 177.75420332 261.17870598 179.48329163 265.81192017 C181.64467997 271.60150312 183.85923836 277.36834769 186.10829163 283.12442017 C188.4976011 289.24050837 190.83844838 295.37077991 193.12782288 301.52505493 C195.13984148 306.91598107 197.21139109 312.2829736 199.28797913 317.64932251 C202.87065342 326.90942259 206.390163 336.17258984 209.63172913 345.55776978 C211.33523026 350.45472714 213.28558101 355.20476207 215.32704163 359.96817017 C217.15242187 364.46483858 218.73275657 369.04046283 220.28993225 373.63613892 C222.07666533 378.84031358 224.15650658 383.89085843 226.29237366 388.96084595 C228.47447919 394.20680579 230.51107847 399.50740264 232.54579163 404.81192017 C233.19874207 406.50985718 233.19874207 406.50985718 233.86488342 408.24209595 C236.57015498 415.31169799 239.16257858 422.40903212 241.63368225 429.56338501 C242.97468173 433.41923608 244.43346169 437.18695281 246.04579163 440.93692017 C248.70041761 447.11682116 250.83092535 453.45340068 253.00672913 459.81289673 C254.94760063 465.41962135 257.11410546 470.80973736 259.76063538 476.12832642 C260.60829163 478.12442017 260.60829163 478.12442017 260.60829163 481.12442017 C226.94829163 481.12442017 193.28829163 481.12442017 158.60829163 481.12442017 C156.08526233 475.44760425 153.7353059 469.9652687 151.73329163 464.12442017 C151.48063538 463.40020874 151.22797913 462.67599731 150.96766663 461.92984009 C149.92066479 458.92780852 148.88258711 455.92277182 147.84950256 452.91592407 C145.2683893 445.40983132 142.6290247 438.01349356 139.42079163 430.74942017 C137.28175428 425.89352758 135.62579743 421.18654702 134.44422913 416.01504517 C133.4337093 412.52072429 132.07682069 409.22917225 130.70497131 405.86270142 C128.8709912 401.28346701 127.21612485 396.64030747 125.54579163 391.99942017 C122.51439025 383.60388188 119.4527578 375.23246636 116.16053772 366.93545532 C113.09586492 359.18811475 110.31563046 351.39660852 107.74452209 343.4725647 C105.98929022 338.11715984 103.93161156 332.95732839 101.69032288 327.78457642 C100.65208211 325.23207835 99.85106786 322.71350683 99.10829163 320.06192017 C98.09147301 316.45422475 96.78024515 313.19715372 95.17079163 309.81192017 C92.76606959 304.7216852 91.1534392 299.57371913 89.57313538 294.17910767 C88.50691482 290.803462 87.12415204 287.71706938 85.61610413 284.52285767 C83.90259578 280.44497347 82.75318507 276.19293196 81.53797913 271.94473267 C80.69469951 268.96551167 80.69469951 268.96551167 78.60829163 266.12442017 C77.91174436 263.79983186 77.24825729 261.46521765 76.60829163 259.12442017 C73.85900359 251.0060515 70.82017441 242.98993029 67.7782135 234.97769165 C65.83731569 229.83116165 64.09956205 224.63579075 62.46766663 219.38223267 C61.72530911 216.96855863 61.72530911 216.96855863 59.60829163 215.12442017 C59.13181475 213.28658079 58.66290594 211.44643179 58.23329163 209.59707642 C56.59492988 203.11530777 54.43708444 196.74543707 51.60829163 190.68692017 C49.45107412 186.03541992 48.06426887 181.22406222 46.60829163 176.31582642 C45.72902338 173.50972425 44.73741481 170.83696219 43.60829163 168.12442017 C41.1707871 162.26280214 39.4010516 156.20836091 37.60829163 150.12442017 C36.94829163 150.12442017 36.28829163 150.12442017 35.60829163 150.12442017 C31.93376652 160.02824376 28.29803355 169.94118512 24.81117249 179.91275024 C22.88995585 185.3837772 20.85442222 190.80650576 18.79432678 196.22647095 C16.61582732 202.0037309 14.67391531 207.84473139 12.78407288 213.72207642 C11.60829163 217.12442017 11.60829163 217.12442017 10.12001038 220.58926392 C8.56690294 224.22120766 7.31976105 227.86575863 6.10829163 231.62442017 C4.50704121 236.59240223 2.66335803 241.32926523 0.60829163 246.12442017 C-0.25012398 248.61591913 -1.08329068 251.11625245 -1.89170837 253.62442017 C-3.08288774 257.3201305 -4.30022418 260.9114529 -5.83311462 264.47988892 C-7.72234391 268.89756041 -9.27541513 273.39267785 -10.82920837 277.93692017 C-12.57510672 283.04122072 -14.35717856 288.10509516 -16.39561462 293.10098267 C-18.82399637 299.08669467 -20.77715034 305.20837944 -22.74717712 311.35684204 C-24.38692026 316.3836564 -26.2341725 321.19416938 -28.43663025 326.00064087 C-29.90183357 329.25877066 -31.15309308 332.58740159 -32.39170837 335.93692017 C-32.65024597 336.63140259 -32.90878357 337.32588501 -33.17515564 338.04141235 C-34.97460005 342.90950704 -36.65368522 347.80844519 -38.26670837 352.74160767 C-40.87058467 360.57131903 -43.64923488 368.34241302 -46.39170837 376.12442017 C-46.63598572 376.81986938 -46.88026306 377.5153186 -47.13194275 378.23184204 C-50.02048906 386.45054256 -53.08336858 394.56341976 -56.42295837 402.60879517 C-58.04986125 406.57745218 -59.54413123 410.49341376 -60.70420837 414.62442017 C-62.34900764 420.35410553 -64.57675534 425.83340665 -66.76719666 431.37051392 C-68.85680341 436.67702984 -70.73751355 442.01624993 -72.48936462 447.44473267 C-73.69042888 451.01152954 -75.0986592 454.47860241 -76.52452087 457.96035767 C-77.20537916 459.65943646 -77.8128788 461.38793145 -78.39170837 463.12442017 C-79.58760584 466.71211256 -81.02937769 470.17213593 -82.48936462 473.65957642 C-83.59806484 476.49348679 -83.59806484 476.49348679 -84.39170837 481.12442017 C-118.38170837 481.12442017 -152.37170837 481.12442017 -187.39170837 481.12442017 C-185.38919758 474.4493842 -183.31545076 467.9866893 -180.83702087 461.49942017 C-180.49906998 460.60662354 -180.16111908 459.7138269 -179.81292725 458.79397583 C-178.71753495 455.90284129 -177.61721981 453.01360952 -176.51670837 450.12442017 C-175.75155945 448.10824139 -174.98666959 446.09196428 -174.22203064 444.07559204 C-171.95061607 438.08982262 -169.6723988 432.10666067 -167.39170837 426.12442017 C-167.06333984 425.26300415 -166.73497131 424.40158813 -166.39665222 423.5140686 C-163.64908753 416.30804055 -160.89714348 409.1037011 -158.13664246 401.90261841 C-150.31684693 381.503441 -142.59167002 361.06906007 -134.89170837 340.62442017 C-132.90259158 335.34299432 -130.91318683 330.06167722 -128.92295837 324.78067017 C-128.68140392 324.13969517 -128.43984947 323.49872017 -128.19097519 322.83832169 C-124.89731019 314.10002856 -121.5865931 305.36841958 -118.25624084 296.64404297 C-115.85642875 290.35416864 -113.47597716 284.05714336 -111.10264587 277.75723267 C-110.74547485 276.80955017 -110.38830383 275.86186768 -110.02030945 274.88546753 C-108.56867979 271.03348472 -107.1172617 267.18142462 -105.66807556 263.32852173 C-98.66914165 244.72494404 -98.66914165 244.72494404 -95.19639587 236.13613892 C-92.35027871 229.08418976 -89.72821501 221.96248448 -87.14170837 214.81192017 C-82.45276209 201.92244258 -77.58936155 189.10685086 -72.62998962 176.3187561 C-67.19524203 162.29899318 -61.79753452 148.26545063 -56.51670837 134.18692017 C-56.1595575 133.23478638 -55.80240662 132.28265259 -55.43443298 131.30166626 C-53.79574582 126.92023659 -52.17588443 122.53338384 -50.59092712 118.13223267 C-47.85720052 110.59516724 -44.97167147 103.11551746 -42.10792542 95.62716675 C-37.43079106 83.39577151 -32.76687753 71.1598136 -28.18077087 58.89395142 C-27.67532494 57.54243736 -27.67532494 57.54243736 -27.15966797 56.16362 C-25.55400128 51.86777598 -23.95168178 47.57071394 -22.3533783 43.27212524 C-19.5298278 35.69621413 -16.62682805 28.18408782 -13.4705658 20.73867798 C-11.86900727 16.85782515 -10.49177339 12.91090188 -9.14170837 8.93692017 C-6.09754229 0.01197868 -6.09754229 0.01197868 0 0 Z " fill="#7B9DA5" transform="translate(873.3917083740234,686.8755798339844)"/>
<path d="M0 0 C0 128.37 0 256.74 0 389 C71.28 389 142.56 389 216 389 C216 419.36 216 449.72 216 481 C112.71 481 9.42 481 -97 481 C-97 332.5 -97 184 -97 31 C-56.13685771 17.02050395 -56.13685771 17.02050395 -44.08203125 13.53515625 C-35.73513629 11.07199538 -27.50611724 8.20877901 -19.26171875 5.42504883 C-17.4209375 4.80472778 -17.4209375 4.80472778 -15.54296875 4.171875 C-13.9036438 3.6164502 -13.9036438 3.6164502 -12.23120117 3.04980469 C-2.84418605 0 -2.84418605 0 0 0 Z " fill="#7B9FA6" transform="translate(1798,687)"/>
<path d="M0 0 C0 128.04 0 256.08 0 388 C71.28 388 142.56 388 216 388 C216 418.36 216 448.72 216 480 C112.71 480 9.42 480 -97 480 C-97 331.5 -97 183 -97 30 C-60.81723531 17.93907844 -60.81723531 17.93907844 -46.5625 13.3125 C-45.72609985 13.040961 -44.88969971 12.769422 -44.0279541 12.48965454 C-33.78585435 9.16765323 -23.53928924 5.86091118 -13.25 2.6875 C-12.34064697 2.40366455 -11.43129395 2.1198291 -10.49438477 1.82739258 C-9.67639404 1.57884521 -8.85840332 1.33029785 -8.015625 1.07421875 C-6.98356934 0.75843872 -6.98356934 0.75843872 -5.93066406 0.4362793 C-4 0 -4 0 0 0 Z " fill="#7B9FA6" transform="translate(2227,688)"/>
<path d="M0 0 C0 128.37 0 256.74 0 389 C71.61 389 143.22 389 217 389 C217 419.03 217 449.06 217 480 C113.71 480 10.42 480 -96 480 C-96 331.5 -96 183 -96 30 C-60.9655755 17.91916396 -60.9655755 17.91916396 -44.00585938 12.62609863 C-42.56169891 12.17532581 -41.11770905 11.72400628 -39.67382812 11.27233887 C-34.38717966 9.61871843 -29.09851123 7.97176021 -23.80755615 6.33197021 C-22.02579978 5.7793748 -20.24442398 5.22555074 -18.46343994 4.67047119 C-15.9586938 3.89063357 -13.45227248 3.11643661 -10.9453125 2.34375 C-9.80799683 1.98813492 -9.80799683 1.98813492 -8.64770508 1.62533569 C-5.65810321 0.7093212 -3.14615671 0 0 0 Z " fill="#7B9FA6" transform="translate(398,688)"/>
<path d="M0 0 C102.63 0 205.26 0 311 0 C311 30.36 311 60.72 311 92 C208.37 92 105.74 92 0 92 C0 61.64 0 31.28 0 0 Z " fill="#7B9FA6" transform="translate(2559,883)"/>
<path d="M0 0 C102.63 0 205.26 0 311 0 C311 30.36 311 60.72 311 92 C271.52485338 92.02202571 232.04971254 92.04049744 192.57456154 92.05106533 C187.91925521 92.05231611 183.26394889 92.05361042 178.60864258 92.05493164 C177.68181431 92.05519395 176.75498604 92.05545626 175.80007207 92.05572652 C160.77253813 92.06008355 145.74500799 92.06797127 130.71747632 92.0771528 C115.30975265 92.08648844 99.90203098 92.09205542 84.4943046 92.09408849 C74.97897498 92.09546391 65.46365611 92.09981549 55.9483298 92.10791647 C49.43250736 92.11318282 42.91669052 92.11480455 36.4008661 92.11350138 C32.6357644 92.11285782 28.87068157 92.11387746 25.10558319 92.11920547 C21.03339403 92.12492632 16.96124557 92.1230012 12.88905334 92.12025452 C11.68577221 92.12316736 10.48249108 92.1260802 9.24274689 92.12908131 C8.16090321 92.12709026 7.07905954 92.12509921 5.96443272 92.12304783 C5.02310602 92.12342755 4.08177932 92.12380727 3.11192757 92.1241985 C1 92 1 92 0 91 C0 60.97 0 30.94 0 0 Z " fill="#7B9FA6" transform="translate(2559,687)"/>
<path d="M0 0 C102.63 0 205.26 0 311 0 C311 29.7 311 59.4 311 90 C208.37 90 105.74 90 0 90 C0 60.3 0 30.6 0 0 Z " fill="#7A9EA6" transform="translate(2559,1078)"/>
<path d="M0 0 C49.83 0 99.66 0 151 0 C149.62393589 2.75212822 148.30877627 5.1749109 146.64453125 7.72265625 C146.19053955 8.42044189 145.73654785 9.11822754 145.26879883 9.8371582 C144.78822021 10.571521 144.3076416 11.30588379 143.8125 12.0625 C142.81215177 13.59873163 141.8121514 15.13518984 140.8125 16.671875 C140.08546875 17.78852539 140.08546875 17.78852539 139.34375 18.92773438 C137.64733199 21.54386739 135.97748569 24.17627266 134.3125 26.8125 C131.99134245 30.47574864 129.60862676 34.0895706 127.1875 37.6875 C123.65303312 42.96201212 120.27743629 48.32105625 116.92919922 53.71435547 C112.87647031 60.22993222 108.70616869 66.66642486 104.52734375 73.1015625 C101.90630142 77.13857023 99.32030112 81.19718077 96.7421875 85.26171875 C94.67240132 88.51490286 92.58683722 91.75773878 90.5 95 C89.36424497 96.76648876 88.22870712 98.5331169 87.09326172 100.29980469 C86.04357219 101.93223834 84.99251861 103.56379464 83.94140625 105.1953125 C83.32136719 106.16210938 82.70132813 107.12890625 82.0625 108.125 C81.24458984 109.39730469 81.24458984 109.39730469 80.41015625 110.6953125 C79.14958404 112.75552747 78.03909847 114.82140708 77 117 C72.9074476 115.63581587 71.54835728 112.88335706 69.25 109.4375 C68.78045898 108.7451123 68.31091797 108.05272461 67.82714844 107.33935547 C62.82418541 99.88329549 58.09489715 92.25076091 53.39160156 84.60327148 C49.97377945 79.06380455 46.41489068 73.68748711 42.64746094 68.38037109 C40.09269368 64.68905799 37.79846121 60.85410903 35.5 57 C32.15279889 51.45345252 28.72096231 46.05950163 24.93359375 40.80078125 C22.21172689 36.85819834 19.67391374 32.80590101 17.125 28.75 C16.61026123 27.93096191 16.09552246 27.11192383 15.56518555 26.26806641 C14.53735278 24.63150142 13.50976237 22.9947842 12.48242188 21.35791016 C10.29326308 17.8758786 8.09002057 14.40312836 5.875 10.9375 C5.17117188 9.83277344 4.46734375 8.72804688 3.7421875 7.58984375 C2.10472899 4.9767089 2.10472899 4.9767089 0 3 C0 2.01 0 1.02 0 0 Z " fill="#BE8A0C" transform="translate(835,1050)"/>
<path d="M0 0 C1.3865928 1.00503039 2.76286959 2.02455663 4.125 3.0625 C5.15625 3.805 6.1875 4.5475 7.25 5.3125 C16.2303775 13.90242631 21.29515603 25.10437236 22.328125 37.5 C22.6071205 52.75175373 17.73566859 65.11387818 7.4375 76.4375 C-3.55289005 86.68940534 -16.49029588 89.77357934 -30.99609375 89.4375 C-41.79406338 88.84779228 -51.0848007 84.51716637 -58.875 77.0625 C-60.03128906 75.96615234 -60.03128906 75.96615234 -61.2109375 74.84765625 C-71.57993357 64.22029649 -75.18939221 52.51367706 -75.26220703 38.08032227 C-75.06616554 27.14495148 -70.28906456 18.68355452 -63.875 10.0625 C-63.1325 9.03125 -62.39 8 -61.625 6.9375 C-45.59562241 -9.82048566 -19.50792461 -12.45803106 0 0 Z " fill="#7B9EA5" transform="translate(529.875,1258.9375)"/>
<path d="M0 0 C1.31581055 -0.01740234 1.31581055 -0.01740234 2.65820312 -0.03515625 C14.91137354 0.01902136 25.91999163 4.49541373 35.11328125 12.6328125 C45.96515707 23.97712638 50.14779858 36.98504702 49.80859375 52.46875 C48.68717354 65.71218868 41.15161594 77.51752116 31.5625 86.375 C20.05508837 95.29324402 6.70739218 97.57598141 -7.4375 96.375 C-20.4858113 94.21219772 -31.44805912 86.51689619 -39.1875 75.99609375 C-47.17939485 63.54871752 -49.16588803 51.18780171 -46.3125 36.75 C-42.69258001 22.77542514 -34.52924132 12.52306245 -22.44140625 4.8828125 C-14.95670447 1.12586206 -8.34592973 -0.1098952 0 0 Z " fill="#7A9EA5" transform="translate(1359.4375,1251.625)"/>
<path d="M0 0 C6.93 0 13.86 0 21 0 C21.763125 2.59875 22.52625 5.1975 23.3125 7.875 C24.20740887 10.91693936 25.10365013 13.95848499 26 17 C26.29519531 18.00289062 26.59039063 19.00578125 26.89453125 20.0390625 C27.99234896 23.73759277 29.12797887 27.41149924 30.375 31.0625 C31.90381321 35.59201574 33.2693024 40.16638156 34.625 44.75 C34.84333496 45.48355713 35.06166992 46.21711426 35.28662109 46.97290039 C36.36035128 50.62901434 37.33426624 54.24230277 38 58 C38.66 58 39.32 58 40 58 C39.938125 57.030625 39.87625 56.06125 39.8125 55.0625 C39.81360318 52.1000824 40.28882433 49.80940509 41.30078125 47.03125 C43.30546848 41.24774802 44.82211914 35.35534055 46.375 29.4375 C49.00397112 19.53104928 51.84522263 9.75113005 55 0 C61.27 0 67.54 0 74 0 C75.53463218 3.83658045 76.52924508 7.01997684 77.375 11 C78.60163667 16.474095 80.12252033 21.76593606 81.8203125 27.109375 C83.72241427 33.24022674 85.32599555 39.46102944 86.98168945 45.66186523 C87.35233521 47.04160522 87.35233521 47.04160522 87.73046875 48.44921875 C87.95114014 49.27768311 88.17181152 50.10614746 88.39916992 50.9597168 C88.94674699 53.04043773 88.94674699 53.04043773 90 55 C94.49165872 44.2158793 97.76622054 33.12642664 101.109375 21.94775391 C103.32719445 14.60730652 105.67737998 7.30775567 108 0 C114.6 0 121.2 0 128 0 C126.87342842 7.88600106 126.87342842 7.88600106 125.80078125 11.4609375 C125.56399658 12.2537915 125.32721191 13.04664551 125.08325195 13.86352539 C124.82890381 14.69231201 124.57455566 15.52109863 124.3125 16.375 C124.04848389 17.24697021 123.78446777 18.11894043 123.51245117 19.01733398 C121.5332489 25.47038857 119.34449339 31.831443 117.046875 38.17700195 C115.32735498 42.95770205 113.90739531 47.75857019 112.63671875 52.6796875 C111.89206311 55.39334058 110.89918764 57.98632224 109.875 60.60546875 C108.68225404 63.86954586 107.65433939 67.18174527 106.625 70.5 C106.30861572 71.5194873 106.30861572 71.5194873 105.98583984 72.55957031 C105.08719703 75.46412433 104.19317817 78.37007706 103.30175781 81.27685547 C102.84089037 82.77869197 102.37884476 84.28016751 101.91552734 85.78125 C101.47813835 87.19835183 101.04348392 88.61630112 100.61181641 90.03515625 C99.11271484 94.88728516 99.11271484 94.88728516 98 96 C95.13732433 96.07325168 92.299281 96.09238205 89.4375 96.0625 C88.63119141 96.05798828 87.82488281 96.05347656 86.99414062 96.04882812 C84.99606244 96.03700518 82.99802217 96.01906914 81 96 C80.60167969 94.38931641 80.60167969 94.38931641 80.1953125 92.74609375 C79.83860579 91.3098799 79.48183134 89.87368288 79.125 88.4375 C78.95097656 87.73302734 78.77695313 87.02855469 78.59765625 86.30273438 C76.43953284 77.63027548 73.83665778 69.09868397 71.2109375 60.55859375 C69.74902056 55.73722121 68.48734381 50.95084686 67.52734375 46.00341797 C67.05858868 43.93269853 67.05858868 43.93269853 65.94140625 41.93017578 C65 40 65 40 65 37 C64.34 37 63.68 37 63 37 C62.88785156 38.13953125 62.77570313 39.2790625 62.66015625 40.453125 C62.07862758 45.0689456 60.84095749 49.32543973 59.4375 53.75 C57.51516316 59.95559612 55.65363299 66.17164211 53.89453125 72.42578125 C53.53883057 73.6900293 53.18312988 74.95427734 52.81665039 76.25683594 C52.11278439 78.76813445 51.41267055 81.28048803 50.71655273 83.79394531 C50.39243408 84.94604492 50.06831543 86.09814453 49.734375 87.28515625 C49.44788086 88.31519775 49.16138672 89.34523926 48.86621094 90.40649414 C48 93 48 93 46 96 C43.41331359 96.3596783 41.14914484 96.50973338 38.5625 96.5 C37.88123047 96.52835938 37.19996094 96.55671875 36.49804688 96.5859375 C34.50390625 96.59375 34.50390625 96.59375 31 96 C28.62889781 92.75412224 27.36754497 89.49108775 26.24609375 85.65625 C25.94896484 84.65722656 25.65183594 83.65820312 25.34570312 82.62890625 C24.89614258 81.08009766 24.89614258 81.08009766 24.4375 79.5 C23.83400152 77.44733637 23.22859711 75.39523192 22.62109375 73.34375 C22.22555298 71.98540039 22.22555298 71.98540039 21.82202148 70.59960938 C21.00178191 68.00563522 20.02245881 65.51989335 19 63 C18.41572153 61.00625355 17.85561582 59.00535071 17.3125 57 C15.59701984 50.89059481 13.65953045 44.88510694 11.625 38.875 C8.39373824 29.32143929 5.4613219 19.69798679 2.61474609 10.02392578 C2.05783034 8.19039458 1.44787842 6.37318023 0.83203125 4.55859375 C0 2 0 2 0 0 Z " fill="#799BA3" transform="translate(1482,1252)"/>
<path d="M0 0 C3.48546169 0.17479675 5.97514159 0.53509462 8.76586914 2.71923828 C12.55937799 6.92823193 15.4193052 11.78806686 18.3112793 16.64013672 C20.95281289 20.97324922 23.91547741 25.0721102 26.85229492 29.20800781 C27.35269287 29.93149414 27.85309082 30.65498047 28.36865234 31.40039062 C34.68002637 40.51540528 41.32939073 49.33317355 47.91479492 58.27050781 C48.24479492 39.46050781 48.57479492 20.65050781 48.91479492 1.27050781 C55.51479492 1.27050781 62.11479492 1.27050781 68.91479492 1.27050781 C68.91479492 32.95050781 68.91479492 64.63050781 68.91479492 97.27050781 C51.91479492 97.27050781 51.91479492 97.27050781 48.03979492 94.27050781 C46.95092419 92.6342903 45.91767032 90.96080014 44.91479492 89.27050781 C44.05682115 88.01675683 43.18872836 86.7698989 42.31323242 85.52832031 C39.88841984 82.08231642 37.51711218 78.60365905 35.16040039 75.11083984 C32.46435752 71.12754483 29.6856587 67.20191373 26.91479492 63.27050781 C26.23151123 62.30081055 26.23151123 62.30081055 25.53442383 61.31152344 C22.95175471 57.64706945 20.36780963 53.98351528 17.78198242 50.32128906 C17.34998535 49.70938721 16.91798828 49.09748535 16.47290039 48.46704102 C14.2945238 45.39608298 12.10322486 42.33430973 9.91479492 39.27050781 C9.58479492 58.41050781 9.25479492 77.55050781 8.91479492 97.27050781 C2.64479492 97.27050781 -3.62520508 97.27050781 -10.08520508 97.27050781 C-11.96079308 95.39491981 -11.21183487 92.68762064 -11.22073364 90.1918335 C-11.21870941 89.3180304 -11.21668518 88.44422729 -11.21459961 87.54394531 C-11.21635193 86.62856995 -11.21810425 85.71319458 -11.21990967 84.77008057 C-11.22432968 81.72853732 -11.22138967 78.6870517 -11.21801758 75.64550781 C-11.21869057 73.54182931 -11.21966056 71.43815089 -11.22091675 69.33447266 C-11.22239392 64.91926332 -11.22023853 60.50407418 -11.21557617 56.08886719 C-11.20987888 50.41558221 -11.21315778 44.74234452 -11.21914864 39.06906128 C-11.22275372 34.72322225 -11.22161591 30.37739453 -11.21902084 26.03155518 C-11.21835143 23.93906651 -11.2191805 21.84657684 -11.2215004 19.75408936 C-11.22402605 16.83505515 -11.22018756 13.91609869 -11.21459961 10.99707031 C-11.21662384 10.12326721 -11.21864807 9.24946411 -11.22073364 8.34918213 C-11.19042036 -0.15261038 -7.71112722 0.27410175 0 0 Z " fill="#799AA3" transform="translate(2201.085205078125,1250.7294921875)"/>
<path d="M0 0 C5.94 0 11.88 0 18 0 C23.28271743 5.83879295 23.28271743 5.83879295 24.75 8.84765625 C27.32322703 13.76572445 30.52932044 18.17715627 33.75 22.6875 C34.9513323 24.40177538 36.15184748 26.11662365 37.3515625 27.83203125 C41.42642215 33.62313876 45.56841248 39.36491838 49.73730469 45.08862305 C58 56.45181915 58 56.45181915 58 59 C58.66 59 59.32 59 60 59 C60 39.53 60 20.06 60 0 C66.27 0 72.54 0 79 0 C79 31.68 79 63.36 79 96 C63 96 63 96 58.8125 92.6875 C57.48452077 90.83124771 56.22397875 88.92641569 55 87 C54.02471839 85.57456208 53.04375293 84.15300422 52.05859375 82.734375 C49.80709038 79.48025167 47.58416793 76.20876613 45.375 72.92578125 C42.29746959 68.3881926 39.06841557 63.98843851 35.75 59.625 C31.998475 54.6819956 28.30494686 49.7118577 24.75 44.625 C24.02296875 43.58601563 23.2959375 42.54703125 22.546875 41.4765625 C21 39 21 39 21 37 C20.34 37 19.68 37 19 37 C19 56.47 19 75.94 19 96 C12.73 96 6.46 96 0 96 C0 64.32 0 32.64 0 0 Z " fill="#7A9BA3" transform="translate(2642,1252)"/>
<path d="M0 0 C3 3.50730689 3 3.50730689 3 6 C0.69833213 7.79083852 -1.60238901 9.47259242 -4 11.125 C-4.66773438 11.59292969 -5.33546875 12.06085938 -6.0234375 12.54296875 C-7.67814266 13.70126236 -9.33855307 14.85139765 -11 16 C-14.19896152 14.51354465 -16.55634961 12.73760843 -19.14453125 10.31640625 C-24.51259472 6.50790648 -29.51073218 5.51311607 -36 5.625 C-37.00933594 5.60759766 -37.00933594 5.60759766 -38.0390625 5.58984375 C-46.03167628 5.63613302 -51.49654298 8.86662273 -57.203125 14.09765625 C-63.74752174 21.02618062 -64.36856324 28.27739709 -64.2734375 37.45703125 C-63.68843421 45.03700239 -60.1964013 50.80190495 -55.0234375 56.26953125 C-48.18785248 62.11540801 -40.29599392 62.69977329 -31.56640625 62.453125 C-24.09619809 61.50400764 -18.83449683 57.66326771 -14 52 C-11.82585153 48.98034934 -10.17629827 46.5288948 -9 43 C-17.91 43 -26.82 43 -36 43 C-36 36.73 -36 30.46 -36 24 C-19.83 24 -3.66 24 13 24 C13 41.62164922 10.53237656 56.16380489 -2.03125 69.08984375 C-13.3747191 79.81421507 -25.52410856 82.56655853 -40.65625 82.2421875 C-52.01420366 81.75195104 -62.58227639 76.43103662 -70.875 68.6875 C-74.65367732 64.55945592 -77.44589719 59.96099509 -80 55 C-80.41636719 54.21367188 -80.83273437 53.42734375 -81.26171875 52.6171875 C-85.86895262 42.30344992 -86.11274092 26.82604344 -82.09765625 16.21875 C-74.84607121 1.5607418 -64.51023925 -8.48849989 -49 -14 C-30.06090865 -17.49037741 -14.06006635 -12.62371425 0 0 Z " fill="#799CA3" transform="translate(1071,1266)"/>
<path d="M0 0 C8.86959069 6.32869999 8.86959069 6.32869999 12.1328125 10.1015625 C12.1328125 11.0915625 12.1328125 12.0815625 12.1328125 13.1015625 C9.83338207 14.96398383 7.57495113 16.63661155 5.1328125 18.2890625 C4.46507813 18.75248047 3.79734375 19.21589844 3.109375 19.69335938 C1.45671383 20.83841747 -0.20446419 21.97116515 -1.8671875 23.1015625 C-2.55941406 22.53888672 -2.55941406 22.53888672 -3.265625 21.96484375 C-11.29403626 15.66587286 -18.41481223 11.16692084 -28.91796875 11.69140625 C-38.00313291 12.9549059 -44.84351363 17.24365273 -50.8671875 24.1015625 C-55.74604956 30.92670916 -56.11309224 39.00318167 -54.8671875 47.1015625 C-52.4965305 55.15476293 -48.49775344 61.85380287 -41.078125 66.0859375 C-40.34851562 66.42109375 -39.61890625 66.75625 -38.8671875 67.1015625 C-38.10019531 67.46894531 -37.33320313 67.83632812 -36.54296875 68.21484375 C-29.42275537 70.57438891 -20.26842526 70.24361832 -13.4296875 67.1640625 C-6.43865891 63.07431078 -1.9678714 56.93603567 2.1328125 50.1015625 C-7.4371875 50.1015625 -17.0071875 50.1015625 -26.8671875 50.1015625 C-26.8671875 43.8315625 -26.8671875 37.5615625 -26.8671875 31.1015625 C-10.6971875 31.1015625 5.4728125 31.1015625 22.1328125 31.1015625 C22.1328125 50.71225197 20.52950453 62.20665542 7.5078125 76.4140625 C2.09914369 81.61597791 -3.89668767 84.48320216 -10.8671875 87.1015625 C-11.81464844 87.47796875 -12.76210937 87.854375 -13.73828125 88.2421875 C-17.582252 89.29795974 -21.22626303 89.40295131 -25.1796875 89.3515625 C-25.93515869 89.34406982 -26.69062988 89.33657715 -27.46899414 89.32885742 C-40.8283544 89.07114371 -52.08506617 84.38928059 -61.8671875 75.1015625 C-71.66082971 64.38866145 -75.66245106 51.87287038 -75.45922852 37.59912109 C-75.11909746 30.699745 -73.26074089 25.13071827 -69.8671875 19.1015625 C-69.35929687 18.15796875 -68.85140625 17.214375 -68.328125 16.2421875 C-62.84900479 6.84199074 -55.16638511 -0.99931489 -44.8671875 -4.8984375 C-44.12082031 -5.19492188 -43.37445312 -5.49140625 -42.60546875 -5.796875 C-28.46069968 -10.76234949 -12.37607215 -8.19451099 0 0 Z " fill="#7A9DA4" transform="translate(2429.8671875,1258.8984375)"/>
<path d="M0 0 C50.35976759 0 50.35976759 0 59.17578125 7.1171875 C66.38078797 14.55361842 68.30520248 22.3709089 68.31469727 32.37841797 C68.16691159 40.63517736 66.34688965 46.80962261 60.625 52.9375 C57.68780818 55.62728258 54.69947174 57.46607269 51 59 C51.58599365 63.10195554 53.90963641 65.95121489 56.3125 69.1875 C57.21272203 70.42543056 58.11243776 71.66372941 59.01171875 72.90234375 C59.4917334 73.55960449 59.97174805 74.21686523 60.46630859 74.89404297 C63.2103528 78.66197123 65.92109578 82.45320884 68.625 86.25 C69.15778564 86.98887451 69.69057129 87.72774902 70.23950195 88.48901367 C70.73023193 89.17842041 71.22096191 89.86782715 71.7265625 90.578125 C72.38519287 91.49706543 72.38519287 91.49706543 73.05712891 92.43457031 C74 94 74 94 74 96 C54.94920951 98.67553679 54.94920951 98.67553679 48.89404297 94.57324219 C45.18113648 90.66985016 42.73923397 86.04810647 40.28076172 81.29101562 C39.03719922 79.06654165 37.67983059 77.20168097 36.06640625 75.234375 C27.99932938 65.23848236 27.85400707 56.54225593 29 44 C30.06927734 43.99613281 30.06927734 43.99613281 31.16015625 43.9921875 C36.96776498 43.75769455 41.5523528 43.29097475 45.8125 39.08203125 C48.26494987 34.7821767 48.07238376 29.72375177 47 25 C43.98021163 20.94061236 42.16346441 20.7211548 37 19 C31.06 18.67 25.12 18.34 19 18 C19 43.74 19 69.48 19 96 C12.73 96 6.46 96 0 96 C0 64.32 0 32.64 0 0 Z " fill="#799BA3" transform="translate(1163,1252)"/>
<path d="M0 0 C52.11111111 0 52.11111111 0 61 8 C62.9117822 10.550833 64.5432081 13.16558968 66 16 C66.36609375 16.71027344 66.7321875 17.42054687 67.109375 18.15234375 C69.85017402 26.91568797 69.66438829 39.18201868 65.5 47.375 C61.87539969 52.85064322 57.2563842 56.9145386 51 59 C52.47480856 63.29687468 54.75903372 66.69496572 57.4375 70.3125 C58.33059164 71.54212376 59.22246916 72.77263005 60.11328125 74.00390625 C60.58072754 74.64859863 61.04817383 75.29329102 61.52978516 75.95751953 C64.10010104 79.52830377 66.61803096 83.13456583 69.125 86.75 C69.61025146 87.44134033 70.09550293 88.13268066 70.59545898 88.8449707 C74 93.76797765 74 93.76797765 74 96 C55.6825835 98.03072907 55.6825835 98.03072907 50.15380859 94.98193359 C47.06621576 92.19283916 45.08870322 88.63695564 43.13916016 85.01611328 C41.46412651 82.0515981 39.48107094 79.33048711 37.50854492 76.55859375 C36.06665215 74.53121644 34.64889623 72.49083956 33.25 70.43359375 C32.66992188 69.58365845 32.66992188 69.58365845 32.078125 68.71655273 C29.84848731 65.16660197 28.74735489 62.69573847 28.8046875 58.453125 C28.81113281 57.60878906 28.81757812 56.76445313 28.82421875 55.89453125 C28.84097656 55.02183594 28.85773437 54.14914062 28.875 53.25 C28.88402344 52.36183594 28.89304687 51.47367188 28.90234375 50.55859375 C28.92585423 48.37211942 28.95871501 46.18619906 29 44 C29.81984375 43.87882812 30.6396875 43.75765625 31.484375 43.6328125 C33.10085938 43.38144531 33.10085938 43.38144531 34.75 43.125 C36.35101562 42.88136719 36.35101562 42.88136719 37.984375 42.6328125 C41.91162595 41.80870025 44.18863725 40.98522619 46.75 37.875 C48.85156076 33.04141024 48.21913386 28.6904612 47.5625 23.625 C46.15806764 20.64343113 46.15806764 20.64343113 42.5 19.6875 C34.70714221 18.71339278 26.84141189 18.43563399 19 18 C19 43.74 19 69.48 19 96 C12.73 96 6.46 96 0 96 C0 64.32 0 32.64 0 0 Z " fill="#799BA3" transform="translate(802,1252)"/>
<path d="M0 0 C6.27 0 12.54 0 19 0 C19 13.53 19 27.06 19 41 C31.21 41 43.42 41 56 41 C56 27.47 56 13.94 56 0 C62.27 0 68.54 0 75 0 C75 31.68 75 63.36 75 96 C68.73 96 62.46 96 56 96 C56 83.79 56 71.58 56 59 C43.79 59 31.58 59 19 59 C19 71.21 19 83.42 19 96 C12.73 96 6.46 96 0 96 C0 64.32 0 32.64 0 0 Z " fill="#7C9CA3" transform="translate(1841,1252)"/>
<path d="M0 0 C20.46 0 40.92 0 62 0 C62 5.94 62 11.88 62 18 C47.81 18 33.62 18 19 18 C19 24.93 19 31.86 19 39 C33.19 39 47.38 39 62 39 C62 44.94 62 50.88 62 57 C47.81 57 33.62 57 19 57 C19 63.6 19 70.2 19 77 C33.19 77 47.38 77 62 77 C62 83.27 62 89.54 62 96 C54.0638579 96.02255473 46.12774054 96.04091723 38.19157505 96.05181217 C34.50685502 96.05704008 30.82215797 96.06413605 27.13745117 96.07543945 C23.58429169 96.08627162 20.03115437 96.09227753 16.47797966 96.09487724 C15.11954334 96.0967309 13.76110829 96.10035038 12.40268135 96.10573006 C10.50617777 96.11294475 8.60965207 96.11340809 6.71313477 96.11352539 C5.09097801 96.11685631 5.09097801 96.11685631 3.43605042 96.12025452 C1 96 1 96 0 95 C-0.09526806 92.04753646 -0.12552452 89.11851579 -0.11352539 86.16577148 C-0.11367142 85.23903625 -0.11381744 84.31230103 -0.1139679 83.35748291 C-0.11326838 80.27866313 -0.10547421 77.19990303 -0.09765625 74.12109375 C-0.09579221 71.99259982 -0.09436824 69.86410547 -0.09336853 67.73561096 C-0.08954228 62.1213768 -0.07971108 56.50716832 -0.06866455 50.89294434 C-0.0566587 44.16324647 -0.0520487 37.43354003 -0.04621124 30.70383453 C-0.03649938 20.46920513 -0.01734357 10.23463214 0 0 Z " fill="#799CA3" transform="translate(2812,1252)"/>
<path d="M0 0 C20.46 0 40.92 0 62 0 C62 5.94 62 11.88 62 18 C47.81 18 33.62 18 19 18 C19 24.93 19 31.86 19 39 C33.19 39 47.38 39 62 39 C62 44.94 62 50.88 62 57 C47.81 57 33.62 57 19 57 C19 63.93 19 70.86 19 78 C33.19 78 47.38 78 62 78 C62 83.94 62 89.88 62 96 C41.54 96 21.08 96 0 96 C0 64.32 0 32.64 0 0 Z " fill="#7A9CA4" transform="translate(2040,1252)"/>
<path d="M0 0 C6.27 0 12.54 0 19 0 C19.00410889 1.8257959 19.00821777 3.6515918 19.01245117 5.53271484 C19.03193344 11.59981179 19.07437536 17.66641768 19.13209057 23.73326683 C19.16622166 27.40770833 19.19144864 31.08174021 19.19555664 34.75634766 C19.19986984 38.30994968 19.22857768 41.8626299 19.27343178 45.41594315 C19.29253234 47.41525716 19.28707889 49.41475789 19.28105164 51.41415405 C19.4043492 59.20083286 20.26867224 65.60092859 25 72 C29.64272914 75.76804152 34.63067993 76.71800708 40.5390625 76.4453125 C45.47363947 75.55238905 49.28627061 73.22536455 52.34765625 69.25 C55.41686386 64.14565473 56.11927504 59.88929726 56.20532227 54.03808594 C56.22526749 52.83714294 56.24521271 51.63619995 56.26576233 50.39886475 C56.29083107 48.46119232 56.29083107 48.46119232 56.31640625 46.484375 C56.33698963 45.14487079 56.35798646 43.80537287 56.37937927 42.46588135 C56.43445709 38.94784659 56.48392906 35.4297546 56.53222656 31.91162109 C56.58254625 28.31863336 56.63817756 24.72572827 56.69335938 21.1328125 C56.80076602 14.08861203 56.90175838 7.04433512 57 0 C63.27 0 69.54 0 76 0 C76.06811947 7.89382393 76.12301233 15.78741447 76.15543652 23.68145466 C76.1710084 27.34805139 76.19208875 31.01443441 76.22631836 34.6809082 C76.25921815 38.22764842 76.27691653 41.77418472 76.28463173 45.3210659 C76.29276919 47.31439828 76.31613815 49.30765007 76.33988953 51.30085754 C76.3422567 64.25965772 73.83959295 75.40045228 64.99609375 85.2265625 C56.18758074 93.64113486 47.57476604 96.72811262 35.56494141 96.52172852 C25.24663023 96.04183237 17.41376787 92.2074478 10 85 C0.85858702 74.27880886 -0.44782313 64.37739616 -0.29296875 50.68359375 C-0.28736283 49.21672503 -0.28309745 47.74985063 -0.28010559 46.28297424 C-0.26873501 42.45079624 -0.23933665 38.61896767 -0.20599365 34.78692627 C-0.17512323 30.86516037 -0.16156425 26.94333716 -0.14648438 23.02148438 C-0.11445793 15.34747966 -0.0617555 7.67383361 0 0 Z " fill="#7B9DA4" transform="translate(637,1252)"/>
<path d="M0 0 C7.26 0 14.52 0 22 0 C23.134375 2.000625 24.26875 4.00125 25.4375 6.0625 C28.51952493 11.46282797 31.63975476 16.83994743 34.8125 22.1875 C35.37118774 23.13991577 35.37118774 23.13991577 35.94116211 24.11157227 C37.72481167 27.09939728 39.48246724 29.60841087 42 32 C42.61746094 30.93523437 43.23492187 29.87046875 43.87109375 28.7734375 C48.14555744 21.43559401 52.46329054 14.14005788 57.0625 7 C57.44398193 6.40751465 57.82546387 5.8150293 58.21850586 5.20458984 C60.85639518 1.14360482 60.85639518 1.14360482 62 0 C63.56172745 -0.08685603 65.12729344 -0.10702219 66.69140625 -0.09765625 C67.63564453 -0.09443359 68.57988281 -0.09121094 69.55273438 -0.08789062 C70.54595703 -0.07951172 71.53917969 -0.07113281 72.5625 -0.0625 C73.55958984 -0.05798828 74.55667969 -0.05347656 75.58398438 -0.04882812 C78.05604849 -0.03700007 80.52799518 -0.02051849 83 0 C82.36469671 3.13727841 81.28566623 5.4723169 79.62890625 8.203125 C79.14196289 9.01064209 78.65501953 9.81815918 78.15332031 10.65014648 C77.62834961 11.50809814 77.10337891 12.3660498 76.5625 13.25 C76.02334961 14.13953369 75.48419922 15.02906738 74.92871094 15.94555664 C70.85820392 22.64368495 66.72652414 29.30310412 62.546875 35.93359375 C62.16853516 36.56160889 61.79019531 37.18962402 61.40039062 37.83666992 C60 40 60 40 57.95898438 42.5793457 C50.37128996 52.95330502 50.8708838 62.88762801 51 75.3125 C50.99189273 77.32488758 50.98020142 79.33726406 50.96484375 81.34960938 C50.92863898 86.2352417 50.96586544 91.11235723 51 96 C44.73 96 38.46 96 32 96 C32.1134375 93.19757813 32.226875 90.39515625 32.34375 87.5078125 C32.95500743 64.29126139 31.926271 48.33719708 17.12841797 29.79125977 C13.32360863 24.80153905 10.20095808 19.38872145 7 14 C6.5764624 13.2997168 6.1529248 12.59943359 5.71655273 11.87792969 C4.80038682 10.36250649 3.89912362 8.83809633 3 7.3125 C2.4225 6.33925781 1.845 5.36601563 1.25 4.36328125 C0 2 0 2 0 0 Z " fill="#7A9CA4" transform="translate(303,1252)"/>
<path d="M0 0 C23.76 0 47.52 0 72 0 C72 5.94 72 11.88 72 18 C63.09 18 54.18 18 45 18 C45 43.74 45 69.48 45 96 C38.73 96 32.46 96 26 96 C26 70.26 26 44.52 26 18 C17.42 18 8.84 18 0 18 C0 12.06 0 6.12 0 0 Z " fill="#7B9CA4" transform="translate(1686,1252)"/>
<path d="M0 0 C7.59765812 4.38128182 12.47536656 10.22051782 15.0625 18.6875 C16.19699322 28.67104038 15.24883703 37.63104252 8.95703125 45.8046875 C3.61515826 51.31802802 -3.08763294 54.94789703 -10.73828125 55.7734375 C-21.22982391 55.90153936 -28.10801602 53.60258992 -35.83203125 46.43359375 C-41.78547111 39.80569012 -44.01307118 32.61312042 -43.82421875 23.82421875 C-42.97071459 13.59890419 -37.1690645 7.20176352 -29.59765625 0.6953125 C-21.0328566 -5.1241483 -9.03794932 -4.18694539 0 0 Z " fill="#073D5F" transform="translate(1374.625,1273.5625)"/>
<path d="M0 0 C3.05834675 2.39995266 5.56420667 4.97490183 8 8 C8.45632813 8.56074219 8.91265625 9.12148437 9.3828125 9.69921875 C13.61787408 16.28873764 13.00916396 25.48219139 12 33 C9.68234278 41.41619304 4.15034927 47.02796626 -3.28125 51.31640625 C-10.7247352 54.78439367 -18.91842654 55.59949248 -26.8046875 53.1171875 C-35.66100416 49.05243426 -41.41234354 43.02796457 -45.109375 34.01953125 C-47.46059761 26.04806162 -46.90407872 19.09205807 -43.4375 11.5625 C-40.67495494 6.62379916 -37.6977704 3.13184693 -33 0 C-31.6696875 -0.8971875 -31.6696875 -0.8971875 -30.3125 -1.8125 C-21.25586948 -6.46320216 -8.51403353 -5.26214572 0 0 Z " fill="#063C5F" transform="translate(520,1275)"/>
<path d="M0 0 C0 31.68 0 63.36 0 96 C-6.27 96 -12.54 96 -19 96 C-19 66.3 -19 36.6 -19 6 C-4 0 -4 0 0 0 Z " fill="#7A9AA2" transform="translate(2551,1252)"/>
<path d="M0 0 C1.26972656 -0.00257812 2.53945313 -0.00515625 3.84765625 -0.0078125 C6.9375 0.125 6.9375 0.125 8.9375 1.125 C11.34310273 1.28108023 13.72452772 1.38304458 16.1328125 1.44140625 C16.84025604 1.46218735 17.54769958 1.48296844 18.27658081 1.50437927 C20.53845425 1.56981078 22.80044462 1.62872974 25.0625 1.6875 C26.59506422 1.73069133 28.12761657 1.77430582 29.66015625 1.81835938 C33.41915073 1.92548555 37.17826292 2.0267709 40.9375 2.125 C40.9375 2.455 40.9375 2.785 40.9375 3.125 C3.9775 3.125 -32.9825 3.125 -71.0625 3.125 C-71.0625 2.795 -71.0625 2.465 -71.0625 2.125 C-56.82134125 1.42458461 -42.62392167 1.00288613 -28.36401367 1.16210938 C-22.37399278 1.20963834 -16.53486039 0.96610144 -10.57617188 0.35644531 C-7.03581566 0.03046846 -3.55589691 -0.00735449 0 0 Z " fill="#023969" transform="translate(915.0625,1045.875)"/>
<path d="M0 0 C0.66 0 1.32 0 2 0 C2.495 2.475 2.495 2.475 3 5 C-25.38 5 -53.76 5 -83 5 C-83 4.67 -83 4.34 -83 4 C-55.61 4 -28.22 4 0 4 C0 2.68 0 1.36 0 0 Z " fill="#72939E" transform="translate(1131,1163)"/>
<path d="M0 0 C0.33 0.99 0.66 1.98 1 3 C-0.14453125 4.6484375 -0.14453125 4.6484375 -1.8125 6.375 C-4.35387789 9.15060627 -5.71417115 11.4392432 -7 15 C-8.5 16.8125 -8.5 16.8125 -10 18 C-10.66 18 -11.32 18 -12 18 C-12.28875 18.639375 -12.5775 19.27875 -12.875 19.9375 C-14 22 -14 22 -16 23 C-14.51417413 18.52582771 -12.02611249 15.14542123 -9.125 11.5 C-8.69058594 10.94441406 -8.25617188 10.38882813 -7.80859375 9.81640625 C-5.22979807 6.5251505 -2.61641905 3.26139677 0 0 Z " fill="#84ABB2" transform="translate(1254,738)"/>
<path d="M0 0 C0 4.00110902 -1.52853365 5.35013891 -3.9375 8.5 C-6.99665963 12.4680916 -6.99665963 12.4680916 -9 17 C-11.0625 18.1875 -11.0625 18.1875 -13 19 C-11.472721 14.35707185 -8.93409202 11.02223041 -5.9375 7.25 C-5.47794922 6.66089844 -5.01839844 6.07179688 -4.54492188 5.46484375 C-1.23028274 1.23028274 -1.23028274 1.23028274 0 0 Z " fill="#8DB5BC" transform="translate(1277,707)"/>
<path d="M0 0 C0.58300781 1.87719727 0.58300781 1.87719727 1 4 C-0.328125 5.96484375 -0.328125 5.96484375 -2.25 7.9375 C-4.93769895 10.80759769 -7.14230552 13.50316333 -9 17 C-9.33 16.01 -9.66 15.02 -10 14 C-8.43152656 11.48164732 -6.84365137 9.17081064 -5.0625 6.8125 C-4.58103516 6.15830078 -4.09957031 5.50410156 -3.60351562 4.83007812 C-2.41153616 3.21323469 -1.20693447 1.60571072 0 0 Z " fill="#85ACB6" transform="translate(1350,902)"/>
<path d="M0 0 C0.33 0.66 0.66 1.32 1 2 C-0.96590723 7.89772169 -4.80980559 12.5304593 -9 17 C-9.33 16.01 -9.66 15.02 -10 14 C-8.43152656 11.48164732 -6.84365137 9.17081064 -5.0625 6.8125 C-4.58103516 6.15830078 -4.09957031 5.50410156 -3.60351562 4.83007812 C-2.41153616 3.21323469 -1.20693447 1.60571072 0 0 Z " fill="#83ADB5" transform="translate(1420,798)"/>
<path d="M0 0 C0.66 0 1.32 0 2 0 C0.63410386 3.79189077 -1.10454649 6.84381378 -3.4375 10.125 C-4.03433594 10.97320313 -4.63117188 11.82140625 -5.24609375 12.6953125 C-6.72838784 14.64309316 -8.21712802 16.33162439 -10 18 C-9.35125544 14.24083632 -7.63573185 11.6055362 -5.5625 8.4375 C-4.94503906 7.48746094 -4.32757812 6.53742188 -3.69140625 5.55859375 C-2.46483036 3.70314985 -1.23377601 1.85066401 0 0 Z " fill="#80A9B4" transform="translate(1271,1018)"/>
<path d="M0 0 C2 2 2 2 2.04345703 3.97119141 C1.94919434 4.75671387 1.85493164 5.54223633 1.7578125 6.3515625 C1.66113281 7.20234375 1.56445312 8.053125 1.46484375 8.9296875 C1.29662109 10.26386719 1.29662109 10.26386719 1.125 11.625 C1.02058594 12.5221875 0.91617188 13.419375 0.80859375 14.34375 C0.54879548 16.5638443 0.27888059 18.78223534 0 21 C-0.33 21 -0.66 21 -1 21 C-1.0269501 18.06243881 -1.04681474 15.12512445 -1.0625 12.1875 C-1.07087891 11.35412109 -1.07925781 10.52074219 -1.08789062 9.66210938 C-1.09111328 8.85966797 -1.09433594 8.05722656 -1.09765625 7.23046875 C-1.10289307 6.49207764 -1.10812988 5.75368652 -1.11352539 4.99291992 C-1 3 -1 3 0 0 Z " fill="#71969F" transform="translate(2356,1287)"/>
<path d="M0 0 C0.99 0 1.98 0 3 0 C1.50923566 3.2826932 -0.38620321 5.93077441 -2.625 8.75 C-3.57246094 9.94882812 -3.57246094 9.94882812 -4.5390625 11.171875 C-5.02117187 11.77515625 -5.50328125 12.3784375 -6 13 C-6.33 12.34 -6.66 11.68 -7 11 C-5.671875 8.3984375 -5.671875 8.3984375 -3.75 5.375 C-3.12609375 4.37210938 -2.5021875 3.36921875 -1.859375 2.3359375 C-1.24578125 1.56507813 -0.6321875 0.79421875 0 0 Z " fill="#84ACB7" transform="translate(1399,828)"/>
<path d="M0 0 C0.33 0 0.66 0 1 0 C1 5.94 1 11.88 1 18 C0.34 18 -0.32 18 -1 18 C-1.66 16.02 -2.32 14.04 -3 12 C-2.01 12.33 -1.02 12.66 0 13 C0 8.71 0 4.42 0 0 Z " fill="#073256" transform="translate(2701,1293)"/>
<path d="M0 0 C0.99 0.33 1.98 0.66 3 1 C0.03 3.97 -2.94 6.94 -6 10 C-6.33 9.01 -6.66 8.02 -7 7 C-4.69 4.69 -2.38 2.38 0 0 Z " fill="#7AA3AD" transform="translate(1004,1262)"/>
<path d="M0 0 C0.33 0.66 0.66 1.32 1 2 C0.36328125 3.875 0.36328125 3.875 -0.6875 6 C-1.18830078 7.051875 -1.18830078 7.051875 -1.69921875 8.125 C-3.21910635 10.31582897 -4.55687434 11.01246289 -7 12 C-5.44298069 7.32894208 -2.91552627 3.91294315 0 0 Z " fill="#164055" transform="translate(966,1081)"/>
<path d="M0 0 C0.66 0.33 1.32 0.66 2 1 C-1.3 4.3 -4.6 7.6 -8 11 C-8.66 10.67 -9.32 10.34 -10 10 C-3.84965831 2.51708428 -3.84965831 2.51708428 0 0 Z " fill="#7BA5B0" transform="translate(2375,1260)"/>
<path d="M0 0 C0.68359375 1.765625 0.68359375 1.765625 1 4 C-0.21484375 5.921875 -0.21484375 5.921875 -1.9375 7.75 C-2.50339844 8.36359375 -3.06929687 8.9771875 -3.65234375 9.609375 C-4.31943359 10.29773438 -4.31943359 10.29773438 -5 11 C-5.33 10.01 -5.66 9.02 -6 8 C-4.78515625 5.95703125 -4.78515625 5.95703125 -3.0625 3.8125 C-2.49660156 3.09707031 -1.93070313 2.38164063 -1.34765625 1.64453125 C-0.90292969 1.10183594 -0.45820312 0.55914063 0 0 Z " fill="#81A8B2" transform="translate(1280,1006)"/>
<path d="M0 0 C0.66 0.99 1.32 1.98 2 3 C-1.625 8.875 -1.625 8.875 -5 10 C-3.66511872 6.40608886 -2.03977277 3.24509304 0 0 Z " fill="#1C4350" transform="translate(928,1139)"/>
<path d="M0 0 C0.33 0.99 0.66 1.98 1 3 C-0.43359375 5.48046875 -0.43359375 5.48046875 -2.4375 8.1875 C-3.09621094 9.08855469 -3.75492188 9.98960937 -4.43359375 10.91796875 C-5.20896484 11.94857422 -5.20896484 11.94857422 -6 13 C-6.33 12.01 -6.66 11.02 -7 10 C-5.56640625 7.51953125 -5.56640625 7.51953125 -3.5625 4.8125 C-2.90378906 3.91144531 -2.24507812 3.01039063 -1.56640625 2.08203125 C-1.04949219 1.39496094 -0.53257813 0.70789063 0 0 Z " fill="#76A2B0" transform="translate(1446,928)"/>
<path d="M0 0 C0.66 0.33 1.32 0.66 2 1 C0.55746343 4.36591866 -1.33264727 6.51047079 -4 9 C-4.66 8.67 -5.32 8.34 -6 8 C-4.02 5.36 -2.04 2.72 0 0 Z " fill="#85A9B2" transform="translate(1236,762)"/>
<path d="M0 0 C1.98 0 3.96 0 6 0 C5.0409375 0.7734375 5.0409375 0.7734375 4.0625 1.5625 C1.44208319 4.65935623 1.30610183 7.02067623 1 11 C0.67 11 0.34 11 0 11 C0 7.37 0 3.74 0 0 Z " fill="#063552" transform="translate(1182,1270)"/>
<path d="M0 0 C0.33 0.66 0.66 1.32 1 2 C-0.125 5 -0.125 5 -2 8 C-4.6171875 9.1875 -4.6171875 9.1875 -7 10 C-6.02223933 8.51990357 -5.0427506 7.04094856 -4.0625 5.5625 C-3.51722656 4.73878906 -2.97195313 3.91507813 -2.41015625 3.06640625 C-1 1 -1 1 0 0 Z " fill="#8CB4BB" transform="translate(1262,727)"/>
<path d="M0 0 C-2.90092502 1.93395001 -3.89674737 2.30131941 -7.1875 2.625 C-8.445625 2.74875 -9.70375 2.8725 -11 3 C-7.83370093 -0.83288835 -4.68080329 -1.56026776 0 0 Z " fill="#0C364F" transform="translate(385,691)"/>
<path d="M0 0 C0.66 0.33 1.32 0.66 2 1 C0.02 3.97 -1.96 6.94 -4 10 C-4.33 9.01 -4.66 8.02 -5 7 C-4.00390625 5.17578125 -4.00390625 5.17578125 -2.5625 3.3125 C-2.08941406 2.68988281 -1.61632813 2.06726563 -1.12890625 1.42578125 C-0.75636719 0.95527344 -0.38382813 0.48476563 0 0 Z " fill="#84ADB9" transform="translate(1320,946)"/>
<path d="M0 0 C0.33 0.99 0.66 1.98 1 3 C-0.21484375 4.82421875 -0.21484375 4.82421875 -1.9375 6.6875 C-2.50339844 7.31011719 -3.06929687 7.93273437 -3.65234375 8.57421875 C-4.09707031 9.04472656 -4.54179688 9.51523437 -5 10 C-5.66 9.67 -6.32 9.34 -7 9 C-4.69 6.03 -2.38 3.06 0 0 Z " fill="#8DB4BB" transform="translate(1254,738)"/>
<path d="M0 0 C0.66 0.99 1.32 1.98 2 3 C1.5390625 5.04296875 1.5390625 5.04296875 0.625 7.1875 C0.32851562 7.90292969 0.03203125 8.61835937 -0.2734375 9.35546875 C-0.51320313 9.89816406 -0.75296875 10.44085937 -1 11 C-1.66 11 -2.32 11 -3 11 C-2.01 7.37 -1.02 3.74 0 0 Z " fill="#698F9A" transform="translate(1590,1252)"/>
<path d="M0 0 C0.66 0.33 1.32 0.66 2 1 C0.68 3.31 -0.64 5.62 -2 8 C-2.66 8 -3.32 8 -4 8 C-3.40072174 4.64404172 -2.15377564 2.62198774 0 0 Z " fill="#7FA6B1" transform="translate(1230,1080)"/>
<path d="M0 0 C0.33 0.66 0.66 1.32 1 2 C-0.32 3.32 -1.64 4.64 -3 6 C-3.33 4.68 -3.66 3.36 -4 2 C-2.68 1.34 -1.36 0.68 0 0 Z " fill="#83A6AC" transform="translate(1258,735)"/>
<path d="M0 0 C1.13757948 4.55031791 0.4283779 6.63084406 -1 11 C-1.66 10.67 -2.32 10.34 -3 10 C-2.01 6.7 -1.02 3.4 0 0 Z " fill="#6E96A1" transform="translate(701,1126)"/>
<path d="M0 0 C0.66 0 1.32 0 2 0 C2.66 2.64 3.32 5.28 4 8 C3.01 7.67 2.02 7.34 1 7 C0.67 4.69 0.34 2.38 0 0 Z " fill="#6E97A1" transform="translate(1040,923)"/>
<path d="M0 0 C1.98 0.495 1.98 0.495 4 1 C2.35 2.65 0.7 4.3 -1 6 C-0.67 4.02 -0.34 2.04 0 0 Z " fill="#81A8B0" transform="translate(1407,816)"/>
</svg>
